# xmcd
#
# Track frame offsets:
# 150
# 44239
# 84644
# 144649
# 170379
# 200040
# 218123
#
# Disc length: 3332 seconds
#
# Revision: 0
# Processed by: cddbd v1.5.2PL0 Copyright (c) Steve Scherf et al.
# Submitted via: Audion 3.0.2 (http://www.panic.com/audion/)
#
DISCID=6c0d0207
DTITLE=Das Niederlandische Blaserensemble - R. Strauss - Sonatine 1 in F-Dur, Suite B-Dur (op14)
DYEAR=1900
DGENRE=
TTITLE0=Sonatine 1 in F-Dur - i Allegro moderato
TTITLE1=Sonatine 1 in F-Dur - ii Romanze und Menuetto
TTITLE2=Sonatine 1 in F-Dur - iii Finale
TTITLE3=Suite B-Dur (op14) - i Praeludium
TTITLE4=Suite B-Dur (op14) - ii Romanze
TTITLE5=Suite B-Dur (op14) - iii Gavotte
TTITLE6=Suite B-Dur (op14) - iv Introduction und Fuge
EXTD=
EXTT0=
EXTT1=
EXTT2=
EXTT3=
EXTT4=
EXTT5=
EXTT6=
PLAYORDER=
